# xmcd
# 
# Track frame offsets:
#     150
#     16032
#     37229
#     59731
#     81039
#     96971
#     113972
#     130847
#     154037
#     171215
# 
# Disc length: 2573
# 
# Revision: 0
# Processed by: cddbd v1.5.2PL0 Copyright (c) Steve Scherf et al.
# Submitted via: fre:ac v1.0.27
# 
DISCID=800a0b0a
DTITLE=LIV KRISTINE - VERVAIN
DYEAR=0
DGENRE=
TTITLE0=My Wilderness
TTITLE1=Love Decay (feat. Michelle Darkness)
TTITLE2=Vervain
TTITLE3=Stronghold of Angels (feat. Doro Pesch)
TTITLE4=Hunters
TTITLE5=Lotus
TTITLE6=Elucidation
TTITLE7=Two and a Heart
TTITLE8=Creeper
TTITLE9=Oblivious
EXTD=
EXTT0=
EXTT1=
EXTT2=
EXTT3=
EXTT4=
EXTT5=
EXTT6=
EXTT7=
EXTT8=
EXTT9=
PLAYORDER=
